<?xml version="1.0" encoding="UTF-8"?>
<svg xmlns="http://www.w3.org/2000/svg" xmlns:xlink="http://www.w3.org/1999/xlink" width="54px" height="45px" viewBox="0 0 53 45" version="1.1">
<g id="surface1">
<path style=" stroke:none;fill-rule:nonzero;fill:rgb(0%,0%,0%);fill-opacity:1;" d="M 35.300781 0.121094 C 32.636719 0.257812 29.855469 0.664062 27.351562 1.289062 L 26.511719 1.496094 L 25.910156 1.359375 C 23.300781 0.742188 20.605469 0.367188 17.753906 0.21875 C 16.460938 0.152344 13.183594 0.191406 11.996094 0.289062 C 8.925781 0.539062 5.875 1.050781 3.789062 1.671875 L 3.464844 1.765625 L 3.464844 5.261719 L 0.0898438 5.261719 L 0.0898438 41.546875 L 22.339844 41.546875 L 22.4375 41.871094 C 22.867188 43.300781 23.925781 44.371094 25.359375 44.816406 C 25.71875 44.929688 25.808594 44.9375 26.527344 44.9375 C 27.246094 44.9375 27.335938 44.929688 27.695312 44.816406 C 29.136719 44.367188 30.183594 43.308594 30.613281 41.871094 L 30.710938 41.546875 L 52.964844 41.546875 L 52.964844 5.261719 L 49.585938 5.261719 L 49.585938 1.765625 L 49.039062 1.605469 C 46.597656 0.875 43.105469 0.316406 39.902344 0.136719 C 39.171875 0.09375 36.007812 0.0859375 35.300781 0.121094 Z M 18.527344 1.773438 C 20.722656 1.964844 22.90625 2.34375 24.984375 2.886719 L 25.683594 3.070312 L 25.683594 19.429688 C 25.683594 28.429688 25.671875 35.792969 25.664062 35.792969 C 25.65625 35.792969 25.324219 35.710938 24.921875 35.617188 C 20.417969 34.515625 15.511719 34.136719 11.285156 34.558594 C 9.207031 34.765625 7.105469 35.191406 5.277344 35.773438 C 5.203125 35.796875 5.199219 34.996094 5.199219 19.429688 L 5.199219 3.066406 L 5.34375 3.015625 C 5.699219 2.898438 7.167969 2.550781 7.976562 2.386719 C 9.460938 2.085938 10.949219 1.878906 12.484375 1.75 C 14.070312 1.617188 16.902344 1.632812 18.527344 1.773438 Z M 38.988281 1.683594 C 41.476562 1.734375 44.152344 2.113281 46.765625 2.769531 C 47.207031 2.878906 47.632812 2.988281 47.710938 3.015625 L 47.855469 3.066406 L 47.855469 35.800781 L 47.757812 35.773438 C 46.984375 35.546875 45.257812 35.175781 44.121094 34.988281 C 38.773438 34.101562 33.40625 34.3125 28.160156 35.625 L 27.371094 35.824219 L 27.371094 3.070312 L 28.074219 2.886719 C 30.148438 2.34375 32.324219 1.964844 34.523438 1.773438 C 35.289062 1.703125 37.414062 1.625 37.769531 1.648438 C 37.851562 1.65625 38.402344 1.671875 38.988281 1.683594 Z M 3.464844 22.550781 C 3.464844 32.34375 3.484375 38.085938 3.511719 38.085938 C 3.53125 38.085938 3.929688 37.972656 4.386719 37.832031 C 7.207031 36.992188 9.601562 36.554688 12.417969 36.378906 C 16.617188 36.113281 21.261719 36.578125 25.074219 37.636719 L 25.730469 37.820312 L 26.605469 37.804688 L 27.480469 37.792969 L 28.347656 37.558594 C 32.613281 36.40625 38.023438 36.039062 42.632812 36.582031 C 44.707031 36.824219 46.597656 37.222656 48.699219 37.851562 L 49.566406 38.113281 L 49.578125 22.5625 L 49.585938 7.015625 L 51.277344 7.015625 L 51.277344 39.792969 L 29.117188 39.792969 L 29.089844 40.457031 C 29.0625 41.171875 29.011719 41.429688 28.785156 41.882812 C 28.597656 42.257812 28.058594 42.789062 27.675781 42.976562 C 26.652344 43.480469 25.542969 43.296875 24.746094 42.492188 C 24.171875 41.921875 24 41.464844 23.960938 40.457031 L 23.9375 39.792969 L 1.777344 39.792969 L 1.777344 7.015625 L 3.464844 7.015625 Z M 3.464844 22.550781 "/>
<path style=" stroke:none;fill-rule:nonzero;fill:rgb(0%,0%,0%);fill-opacity:1;" d="M 13.484375 6.835938 C 11.515625 6.945312 9.597656 7.191406 7.75 7.558594 L 7.523438 7.601562 L 7.691406 8.433594 C 7.78125 8.894531 7.863281 9.277344 7.875 9.285156 C 7.882812 9.292969 8.019531 9.273438 8.183594 9.238281 C 10.140625 8.820312 12.421875 8.59375 14.867188 8.558594 C 17.636719 8.515625 19.785156 8.695312 22.304688 9.167969 C 22.683594 9.238281 22.996094 9.292969 23 9.289062 C 23.023438 9.246094 23.332031 7.628906 23.3125 7.617188 C 23.28125 7.585938 22.261719 7.390625 21.460938 7.265625 C 20.476562 7.113281 19.394531 6.984375 18.351562 6.902344 C 17.332031 6.820312 14.445312 6.78125 13.484375 6.835938 Z M 13.484375 6.835938 "/>
<path style=" stroke:none;fill-rule:nonzero;fill:rgb(0%,0%,0%);fill-opacity:1;" d="M 13.617188 13.746094 C 11.550781 13.867188 10.144531 14.035156 8.398438 14.347656 C 7.992188 14.421875 7.632812 14.492188 7.59375 14.503906 C 7.527344 14.523438 7.535156 14.613281 7.691406 15.363281 C 7.789062 15.824219 7.863281 16.203125 7.863281 16.210938 C 7.863281 16.214844 8.050781 16.183594 8.277344 16.132812 C 8.867188 16.011719 9.914062 15.839844 10.707031 15.738281 C 14.542969 15.242188 18.429688 15.355469 22.277344 16.074219 C 22.609375 16.136719 22.90625 16.1875 22.941406 16.1875 C 22.980469 16.1875 23.050781 15.945312 23.167969 15.375 C 23.257812 14.921875 23.324219 14.546875 23.308594 14.53125 C 23.265625 14.492188 22.027344 14.261719 21.070312 14.117188 C 19.964844 13.957031 18.621094 13.820312 17.507812 13.757812 C 16.773438 13.71875 14.199219 13.710938 13.617188 13.746094 Z M 13.617188 13.746094 "/>
<path style=" stroke:none;fill-rule:nonzero;fill:rgb(0%,0%,0%);fill-opacity:1;" d="M 13.8125 20.636719 C 12.402344 20.703125 10.890625 20.851562 9.464844 21.070312 C 8.746094 21.183594 7.601562 21.394531 7.554688 21.425781 C 7.527344 21.441406 7.839844 23.054688 7.878906 23.09375 C 7.886719 23.105469 7.984375 23.09375 8.089844 23.070312 C 8.507812 22.976562 9.925781 22.746094 10.753906 22.644531 C 12.128906 22.46875 13.246094 22.386719 14.773438 22.359375 C 17.527344 22.3125 20.253906 22.558594 22.859375 23.09375 L 23 23.121094 L 23.167969 22.28125 C 23.261719 21.816406 23.328125 21.433594 23.320312 21.425781 C 23.289062 21.390625 21.792969 21.128906 20.90625 21.003906 C 18.582031 20.664062 16.15625 20.539062 13.8125 20.636719 Z M 13.8125 20.636719 "/>
<path style=" stroke:none;fill-rule:nonzero;fill:rgb(0%,0%,0%);fill-opacity:1;" d="M 36.125 6.820312 C 34.375 6.910156 32.992188 7.046875 31.613281 7.261719 C 30.796875 7.390625 29.769531 7.585938 29.738281 7.617188 C 29.726562 7.625 29.792969 8.011719 29.886719 8.472656 C 30.023438 9.15625 30.066406 9.304688 30.125 9.285156 C 30.277344 9.238281 31.441406 9.039062 32.167969 8.929688 C 34.226562 8.625 35.867188 8.523438 38.1875 8.558594 C 40.628906 8.59375 42.914062 8.820312 44.867188 9.238281 C 45.03125 9.273438 45.171875 9.292969 45.179688 9.285156 C 45.1875 9.277344 45.273438 8.894531 45.363281 8.433594 L 45.53125 7.601562 L 45.304688 7.558594 C 42.699219 7.035156 40.03125 6.78125 37.460938 6.796875 C 36.863281 6.804688 36.257812 6.8125 36.125 6.820312 Z M 36.125 6.820312 "/>
<path style=" stroke:none;fill-rule:nonzero;fill:rgb(0%,0%,0%);fill-opacity:1;" d="M 35.390625 13.761719 C 34.394531 13.820312 33.019531 13.96875 31.984375 14.117188 C 31.027344 14.261719 29.789062 14.492188 29.742188 14.53125 C 29.730469 14.546875 29.796875 14.921875 29.886719 15.375 C 30 15.945312 30.074219 16.1875 30.113281 16.1875 C 30.148438 16.1875 30.445312 16.136719 30.785156 16.074219 C 32.15625 15.8125 33.667969 15.621094 35.214844 15.507812 C 36.183594 15.433594 39.03125 15.433594 40.011719 15.503906 C 41.585938 15.621094 43.3125 15.84375 44.558594 16.09375 C 44.902344 16.160156 45.1875 16.214844 45.1875 16.210938 C 45.1875 16.203125 45.265625 15.824219 45.363281 15.363281 C 45.515625 14.617188 45.527344 14.523438 45.460938 14.503906 C 45.335938 14.46875 44.441406 14.304688 43.722656 14.191406 C 42.832031 14.046875 41.730469 13.910156 40.699219 13.820312 C 39.726562 13.738281 36.410156 13.699219 35.390625 13.761719 Z M 35.390625 13.761719 "/>
<path style=" stroke:none;fill-rule:nonzero;fill:rgb(0%,0%,0%);fill-opacity:1;" d="M 35.214844 20.6875 C 33.199219 20.816406 29.726562 21.320312 29.726562 21.480469 C 29.726562 21.570312 30.035156 23.078125 30.058594 23.101562 C 30.066406 23.117188 30.351562 23.070312 30.6875 23.003906 C 31.441406 22.855469 32.917969 22.640625 33.792969 22.554688 C 35.179688 22.410156 35.933594 22.375 37.613281 22.375 C 39.292969 22.375 40.046875 22.410156 41.433594 22.554688 C 42.308594 22.640625 43.785156 22.855469 44.539062 23.003906 C 44.875 23.070312 45.15625 23.113281 45.167969 23.101562 C 45.1875 23.078125 45.5 21.554688 45.5 21.46875 C 45.5 21.410156 44.40625 21.199219 43.15625 21.019531 C 42.289062 20.890625 40.890625 20.746094 39.902344 20.683594 C 39.050781 20.628906 36.0625 20.632812 35.214844 20.6875 Z M 35.214844 20.6875 "/>
</g>
</svg>
